PathFileType	4	(X/Y/Z)	7_coords_data.trc
DataRate	CameraRate	NumFrames	NumMarkers	Units	OrigDataRate	OrigDataStartFrame	OrigNumFrames
30.0	30.0	8	21	m	30.0	19	65
Frame#	Time	THUMB_TIP	THUMB_IP	THUMB_MCP	THUMB_CMC	INDEX_TIP	INDEX_DIP	INDEX_PIP	INDEX_MCP	MIDDLE_TIP	MIDDLE_DIP	MIDDLE_PIP	MIDDLE_MCP	RING_TIP	RING_DIP	RING_PIP	RING_MCP	PINKY_TIP	PINKY_DIP	PINKY_PIP	PINKY_MCP	WRIST
X1	Y1	Z1	X2	Y2	Z2	X3	Y3	Z3	X4	Y4	Z4	X5	Y5	Z5	X6	Y6	Z6	X7	Y7	Z7	X8	Y8	Z8	X9	Y9	Z9	X10	Y10	Z10	X11	Y11	Z11	X12	Y12	Z12	X13	Y13	Z13	X14	Y14	Z14	X15	Y15	Z15	X16	Y16	Z16	X17	Y17	Z17	X18	Y18	Z18	X19	Y19	Z19	X20	Y20	Z20	X21	Y21	Z21
17	0.5999999999999973	0.4681104014650802	-0.040660078689059964	-0.17357228722196538	0.4739096719752147	-0.04280895441527699	-0.15144197329144105	0.46573228657099686	-0.039870518961548695	-0.12155358148065343	0.46828657276202046	-0.03505551724396172	-0.07727964580158841	0.5613860845859505	0.02828517536711017	-0.17800528686917244	0.5502041880789554	0.01993031337733986	-0.16646572571465973	0.5353444770280185	0.008076175777867789	-0.15001342367952042	0.5114676810588565	-0.009665408656426844	-0.11953768103052487	0.5833566725097727	0.057888486349650936	-0.13890306502783267	0.5695582670853413	0.049832131171567706	-0.13037668543344494	0.548581382283123	0.03352750602678356	-0.11839590695779734	0.522373833818441	0.001653467400191233	-0.1012682104955801	0.5982458343704673	0.04630400066879059	-0.0995559160565983	0.5834451697620651	0.03716134458350395	-0.09482810822888743	0.5643205230836144	0.022143863352340754	-0.08945194548059898	0.5338687290383224	-0.0034003932607754583	-0.08204249020329302	0.60064323006318	0.014508486507582963	-0.04134633121999454	0.5856644387610961	0.007291446952569336	-0.04541451892338111	0.5672052513788002	-0.0010760729669927471	-0.05089676577855062	0.5347691927777307	-0.01259113146043389	-0.06167586506005962	0.4622830810018609	-0.023011742144276925	-0.051989820119430985
18	0.6333333333333304	0.4682108854884953	-0.04090130653535551	-0.17352746103347222	0.4739833420116447	-0.042966975433245125	-0.15138221870712498	0.465767785528463	-0.03997971957213431	-0.1215091382819008	0.46833505830262767	-0.035110318653846395	-0.07724190383925689	0.5614262829109533	0.02820264079743806	-0.17802527831333587	0.5502233054265151	0.01986997904375365	-0.16649011279298664	0.5353346411081881	0.008045785724510757	-0.15004243939626127	0.5114322488801442	-0.009650749287008376	-0.1195605695657731	0.5833076237258965	0.05807983186621768	-0.13879891897556196	0.5695384621729211	0.04990888431365659	-0.13033453440127873	0.5485841362965895	0.03353204875117455	-0.11841291395656084	0.5223264150848734	0.0016862315809026418	-0.10130958309601135	0.5981490284976219	0.046354116705283444	-0.09975726864578438	0.5833591477176645	0.037214243012675174	-0.09499049453766717	0.5642810617691955	0.02215130560854206	-0.08957620489801943	0.5338404153042475	-0.0033871435198324917	-0.08210121373324308	0.6004705325148664	0.014937910486591877	-0.04144106587115082	0.5855200665619027	0.007650653202424751	-0.04548821907601297	0.5671166683096116	-0.0008543823240296788	-0.05094636184267998	0.5347619002811285	-0.012591307510521732	-0.061730471633930084	0.4622830810018609	-0.023011742144276925	-0.051989820119430985
19	0.6666666666666637	0.46834621283174827	-0.041047880492261046	-0.1735082948429113	0.4740843964617909	-0.04304346897701028	-0.15134772456082135	0.46582467263909566	-0.04003978787307638	-0.12148847369616178	0.4683633426095827	-0.035134374467617135	-0.07722356576558453	0.5614525223718909	0.028244806016993973	-0.1780063114713904	0.5502332524635568	0.019919156519878856	-0.16648192241274018	0.5353248316640762	0.008105293594956264	-0.1500447248092326	0.5114042982783037	-0.009570309062571059	-0.11956494057060396	0.5832233278859829	0.0583773699582697	-0.13864737310503794	0.5694868839131513	0.05008517551463032	-0.13024799108669083	0.5485643356510987	0.03362362693253418	-0.11838738644352975	0.5222746227418285	0.001782654871056888	-0.10132422687888987	0.5980327589271623	0.0464806248847095	-0.09991935514154038	0.5832567053636922	0.03733774829859404	-0.09511560152374021	0.5642318309626237	0.022217629325799182	-0.08967353066127459	0.5338064858566423	-0.0033215520509536356	-0.08213898198286962	0.6003213477858043	0.015355170703648224	-0.041521424124506434	0.5853922252213858	0.008013126298935802	-0.04554829430068552	0.5670320887668512	-0.0005952260038138979	-0.050990139484316854	0.5347487469286454	-0.012533972985585895	-0.06176676285450067	0.4622830810018608	-0.023011742144276925	-0.051989820119430985
20	0.6999999999999968	0.468513094664863	-0.04117334822407703	-0.17348252679848136	0.47421777051882175	-0.04311813723038349	-0.1513087930325544	0.46590461689349205	-0.04011087770358379	-0.12146473387599632	0.46839799026380635	-0.03516148092131077	-0.07720214740923137	0.5614847423569516	0.028282806126750604	-0.17798068957698848	0.5502483549228316	0.019961557191612966	-0.16646980717858723	0.5353216327982802	0.008154943953803895	-0.15004401394144884	0.5113743390877794	-0.009498466987113874	-0.11957238287099092	0.5830969522783181	0.05869305043529682	-0.13853680912112942	0.5693955849174083	0.050286678462979184	-0.13019382148453162	0.5485202027226774	0.03373760491004141	-0.11837197168158753	0.5222193167225713	0.0018907719340370832	-0.10133699161092391	0.5978855547266277	0.04665287473374091	-0.10011455426399785	0.5831193927486342	0.03752034805059612	-0.09526095592654671	0.564158633386311	0.02233632404938679	-0.08977324251067176	0.5337653494405044	-0.0032208416333154855	-0.08217058460330307	0.600191511050896	0.01577429613433301	-0.041590191904770535	0.585274904151619	0.008399261835914551	-0.04560313442985031	0.5669502058123033	-0.00029383546958039464	-0.05102969033671034	0.5347310425038121	-0.012426313921470866	-0.0617819893148448	0.4622830810018608	-0.023011742144276925	-0.051989820119430985
21	0.7333333333333302	0.46868277084049514	-0.04126232800537999	-0.17346251965692572	0.47435937197789835	-0.0431637281074041	-0.1512778204888312	0.46598595726404823	-0.0401681894126793	-0.12144943343960768	0.46843153968728135	-0.035170581284929336	-0.07718959792689217	0.5615614525349134	0.028271420949359194	-0.17794806850247646	0.5503093030924361	0.01995456916484506	-0.16644941165401883	0.535359371208709	0.00816454932034183	-0.1500328102475722	0.5113566742505334	-0.009432016315686576	-0.11957189249135647	0.5829888158128262	0.05896930878966666	-0.13844717344529756	0.5693199370873021	0.050466295761728786	-0.13014894930795162	0.5484952393355678	0.03383766473381955	-0.11834936695574239	0.5221790669977993	0.001992842555143981	-0.10133424735882512	0.5977451258005644	0.046820527685247026	-0.10032362676915396	0.5829791946421885	0.037722233764387325	-0.09540546402725991	0.5640738405550675	0.02249244989155097	-0.08985377518265858	0.5337307919319438	-0.00310125103183001	-0.08217375517622061	0.6001045832548262	0.016108433260727972	-0.04162506173866609	0.5851876711040779	0.008725834075203442	-0.0456229313154215	0.5668846547280921	-2.6154033456404768e-05	-0.051027958113345595	0.5347137264396618	-0.012296205593827825	-0.0617685660461631	0.462283081001861	-0.023011742144276925	-0.051989820119430985
22	0.7666666666666633	0.4688991613934752	-0.041368780536023886	-0.1734328048402935	0.47453356678694425	-0.043238375719236055	-0.15123464974323741	0.46608584564898015	-0.04025174418181199	-0.12142632809248266	0.4684733175141168	-0.03518831250655663	-0.07717080145723398	0.5616758058413098	0.028196217254120692	-0.17791507606116824	0.550414292617057	0.01987854940913114	-0.16642618048672742	0.5354371348407452	0.008113030871369387	-0.1500168187843015	0.5113645657179967	-0.009391486468585453	-0.11955800425507657	0.5828714574450633	0.059223699139567154	-0.13840012184396577	0.5692327779340378	0.05064266205318668	-0.13013258147710371	0.5484496912356527	0.033953751628568174	-0.1183447434172018	0.5221467512450099	0.0021050184674602512	-0.10131648851891029	0.5975704696789929	0.0470441853418051	-0.1005828590612251	0.5828035345569722	0.037991330293983494	-0.09558451507694787	0.5639580472089278	0.02272037282139805	-0.08994311068750804	0.5336924721451531	-0.002931389080915725	-0.08215190337631229	0.6000228421649155	0.016465994774249593	-0.041613199238209386	0.5851015188777127	0.009080629204095247	-0.04558943951690897	0.5668137848779203	0.0002908405276207393	-0.050984846746744306	0.5346881094518494	-0.012091626568409897	-0.06173188996962509	0.4622830810018609	-0.023011742144276925	-0.051989820119430985
23	0.7999999999999965	0.4691245409002476	-0.04143862597480874	-0.17339970622694761	0.474713586954565	-0.04329832531771727	-0.15118925637655722	0.4661855348808386	-0.04033049958743984	-0.12140193796313647	0.46851480682356805	-0.035210505793417335	-0.07714981760980222	0.5618894094520852	0.028020462164581206	-0.17784517858129373	0.55060997342086	0.019708159435364303	-0.16636999029720217	0.5355893809276044	0.007986044004191117	-0.14996926946030587	0.511419906090903	-0.009400391270963926	-0.11951956587322798	0.5828637311346152	0.059362357226227735	-0.1383236507440485	0.5692426433713329	0.05072872592616806	-0.13008190464752334	0.5484776061140486	0.034007498015017346	-0.11830806437143004	0.5221561436868625	0.0021814032722949905	-0.10126610937437963	0.5974640423305688	0.04714971674000945	-0.10084389829833407	0.5826884484542265	0.03816278641007509	-0.09575303306280647	0.5638823386169596	0.022885616832666655	-0.08999818280482763	0.5336921094364753	-0.0028143039751262755	-0.08207448628722847	0.6000139135851468	0.016636419753707	-0.04152885076675794	0.5850741322141833	0.009280968874059381	-0.04549120801275408	0.5667817754425488	0.0004988657810075514	-0.0508834587489726	0.5346782723953649	-0.011939250869511309	-0.06163249578898433	0.462283081001861	-0.023011742144276925	-0.051989820119430985
24	0.8333333333333297	0.4693028931510883	-0.04141526142928498	-0.17337970828908955	0.47485064651316944	-0.04328479598491097	-0.1511597336451158	0.46626465431183384	-0.040367662164119134	-0.12138405450609036	0.4685611747722047	-0.0352206711451889	-0.07713335420399159	0.5619658837621444	0.027997091719446976	-0.17782236348385116	0.5506874404869697	0.019673557634272476	-0.1663543428341659	0.5356528354357399	0.007967472155081756	-0.14995501215552487	0.5114256803228856	-0.009331796564413186	-0.11950150084880695	0.5826904861602741	0.059644820005971266	-0.13833547150142034	0.5690992405435589	0.050957235957518665	-0.13010115756599205	0.5483887325477226	0.034178882080775796	-0.11831255078905711	0.5221132400492854	0.002330172114507034	-0.10124193016621297	0.5972383252725857	0.04742347718575701	-0.10118932291968585	0.58246104356032	0.038502056781211436	-0.0959893033849436	0.5637143109170828	0.02320149063204402	-0.09010435056287802	0.5336506518238453	-0.002598915250328626	-0.08202745188637894	0.5999990573382639	0.016902202741539196	-0.041529357112717435	0.5850460595223214	0.009565334312693685	-0.045476282241754706	0.5667457457521046	0.0007929187992170572	-0.05085729153096119	0.5346491311003813	-0.011695696258730126	-0.061568279946285	0.4622830810018609	-0.023011742144276925	-0.051989820119430985
